<?xml version="1.0" encoding="utf-8"?>
<svg width="175.10004px" height="51.882294px" viewBox="0 0 175.10004 51.882294" version="1.1" xmlns:xlink="http://www.w3.org/1999/xlink" xmlns="http://www.w3.org/2000/svg">
  <defs>
    <path d="M9.15527e-05 0L175.099 0L175.099 51.877L9.15527e-05 51.877L9.15527e-05 0Z" id="path_1" />
    <clipPath id="mask_1">
      <use xlink:href="#path_1" />
    </clipPath>
  </defs>
  <g id="Agrupar">
    <g id="616046f162b45c576cc38c63_Google-play">
      <path d="M9.15527e-05 0L175.099 0L175.099 51.877L9.15527e-05 51.877L9.15527e-05 0Z" id="Fundo" fill="#FFFFFF" fill-opacity="0" fill-rule="evenodd" stroke="none" />
      <path d="M168.617 1.03329C171.624 1.03825 174.061 3.47495 174.066 6.48229L174.066 45.4003C174.061 48.4077 171.624 50.8444 168.617 50.8493L6.48199 50.8493C3.47464 50.8443 1.03794 48.4076 1.03299 45.4003L1.03299 6.4823C1.03797 3.47491 3.47469 1.03823 6.48203 1.03329L168.617 1.03329ZM168.617 0.000298023L6.482 0.000298023C2.90619 0.0101867 0.00988817 2.90649 0 6.4823L0 45.4003C0.00995398 48.9762 2.90631 51.8725 6.48212 51.8823L168.617 51.8823C172.193 51.873 175.09 48.9765 175.1 45.4003L175.1 6.4823C175.095 2.90381 172.195 0.0045681 168.617 0.000297546L168.617 0.000298023ZM88.376 28.2123C85.3336 28.2244 82.8759 30.6985 82.884 33.7409C82.8921 36.7833 85.3629 39.2443 88.4053 39.2402C91.4477 39.2362 93.912 36.7687 93.912 33.7263C93.9348 32.2532 93.3581 30.834 92.3143 29.7943C91.2705 28.7546 89.849 28.1836 88.376 28.2123L88.376 28.2123ZM88.376 37.0763C87.0041 37.1737 85.7123 36.422 85.1192 35.1811C84.5261 33.9403 84.7524 32.4629 85.6898 31.4565C86.6272 30.4501 88.0848 30.1196 89.3646 30.6232C90.6444 31.1268 91.4858 32.362 91.486 33.7373C91.5269 34.5952 91.2199 35.4333 90.6344 36.0616C90.0489 36.69 89.2346 37.0555 88.376 37.0753L88.376 37.0763ZM76.293 28.2123C73.2506 28.2244 70.7929 30.6985 70.801 33.7409C70.8091 36.7833 73.2799 39.2443 76.3223 39.2402C79.3647 39.2362 81.829 36.7687 81.829 33.7263C81.8518 32.2532 81.2751 30.834 80.2313 29.7943C79.1875 28.7546 77.766 28.1836 76.293 28.2123L76.293 28.2123ZM76.293 37.0763C74.9211 37.1737 73.6293 36.422 73.0362 35.1811C72.4431 33.9403 72.6694 32.4629 73.6068 31.4565C74.5442 30.4501 76.0018 30.1196 77.2816 30.6232C78.5613 31.1268 79.4028 32.362 79.403 33.7373C79.4439 34.5952 79.1369 35.4333 78.5514 36.0616C77.9659 36.69 77.1516 37.0555 76.293 37.0753L76.293 37.0763ZM61.926 29.9083L61.926 32.2463L67.526 32.2463C67.4442 33.3434 66.9962 34.3813 66.254 35.1933C65.1194 36.3526 63.5468 36.9768 61.926 36.9113C58.4858 36.9089 55.6983 34.1194 55.6983 30.6793C55.6984 27.2391 58.4859 24.4496 61.9261 24.4473C63.4991 24.4245 65.0168 25.0269 66.146 26.1223L67.8 24.4703C66.2388 22.9268 64.1222 22.0762 61.927 22.1103C58.834 22.0631 55.9556 23.6861 54.3953 26.357C52.835 29.028 52.835 32.3325 54.3953 35.0035C55.9555 37.6745 58.834 39.2975 61.9269 39.2503C64.1722 39.3414 66.3493 38.4679 67.909 36.8503C69.2716 35.361 69.9976 33.3978 69.932 31.3803C69.9376 30.8915 69.8937 30.4033 69.801 29.9233L61.926 29.9233L61.926 29.9083ZM120.7 31.7253C120.021 29.6786 118.135 28.2749 115.979 28.2123C114.548 28.2221 113.183 28.8167 112.201 29.858C111.219 30.8993 110.705 32.2969 110.779 33.7263C110.748 35.1903 111.313 36.6042 112.344 37.6438C113.375 38.6834 114.785 39.2596 116.249 39.2403C118.096 39.2487 119.824 38.3296 120.849 36.7933L118.967 35.5423C118.395 36.4961 117.36 37.0756 116.248 37.0653C115.098 37.1072 114.038 36.4436 113.573 35.3903L120.947 32.3343L120.7 31.7253ZM113.174 33.5633C113.121 32.7523 113.397 31.9542 113.939 31.3487C114.481 30.7432 115.244 30.3813 116.056 30.3443C116.912 30.2881 117.717 30.7509 118.1 31.5183L113.174 33.5633ZM107.181 38.9143L109.606 38.9143L109.606 22.7003L107.18 22.7003L107.181 38.9143ZM103.211 29.4523L103.124 29.4523C102.381 28.6424 101.323 28.1942 100.224 28.2233C97.27 28.3492 94.9399 30.7806 94.9399 33.7373C94.9399 36.694 97.27 39.1254 100.224 39.2513C101.327 39.2783 102.387 38.8212 103.124 38.0003L103.211 38.0003L103.211 38.7943C103.211 40.9043 102.08 42.0353 100.264 42.0353C99.0233 42.003 97.9243 41.2262 97.48 40.0673L95.37 40.9483C96.1877 42.9286 98.1215 44.218 100.264 44.2113C103.103 44.2113 105.506 42.5363 105.506 38.4693L105.506 28.5603L103.21 28.5603L103.211 29.4523ZM100.427 37.0763C99.5755 37.0516 98.77 36.6845 98.1927 36.0581C97.6154 35.4317 97.3152 34.599 97.36 33.7483C97.3124 32.8937 97.6107 32.0559 98.1877 31.4237C98.7646 30.7915 99.5716 30.4179 100.427 30.3873C101.269 30.4284 102.058 30.8093 102.614 31.4429C103.169 32.0764 103.444 32.9084 103.375 33.7483C103.441 34.5843 103.164 35.4113 102.608 36.0389C102.052 36.6665 101.264 37.0407 100.426 37.0753L100.427 37.0763ZM132.053 22.7003L126.253 22.7003L126.253 38.9133L128.678 38.9133L128.678 32.7693L132.061 32.7693C133.926 32.869 135.693 31.9302 136.654 30.3293C137.615 28.7283 137.613 26.7272 136.648 25.1283C135.684 23.5294 133.914 22.5945 132.05 22.6983L132.053 22.7003ZM132.118 30.5203L128.681 30.5203L128.681 24.9603L132.118 24.9603C133.123 24.9412 134.06 25.4666 134.569 26.3341C135.077 27.2016 135.077 28.276 134.569 29.1435C134.06 30.011 133.123 30.5364 132.118 30.5173L132.118 30.5203ZM147.072 28.1823C145.268 28.0776 143.573 29.0511 142.754 30.6623L144.908 31.5543C145.345 30.7574 146.21 30.2927 147.116 30.3683C148.395 30.2445 149.533 31.1781 149.661 32.4563L149.661 32.6303C148.884 32.216 148.017 31.9996 147.137 32.0003C144.821 32.0003 142.461 33.2723 142.461 35.6543C142.508 36.666 142.962 37.6157 143.72 38.2875C144.478 38.9593 145.475 39.2961 146.485 39.2213C147.727 39.2955 148.911 38.6868 149.574 37.6333L149.661 37.6333L149.661 38.8843L152 38.8843L152 32.6603C152 29.7893 149.845 28.1793 147.072 28.1793L147.072 28.1823ZM146.778 37.0823C145.985 37.0823 144.878 36.6913 144.878 35.7013C144.878 34.4503 146.259 33.9723 147.445 33.9723C148.217 33.95 148.98 34.138 149.653 34.5163C149.474 35.9706 148.243 37.0661 146.778 37.0753L146.778 37.0823ZM160.5 28.5383L157.726 35.5643L157.639 35.5643L154.757 28.5383L152.147 28.5383L156.465 38.3593L154.007 43.8293L156.53 43.8293L163.186 28.5383L160.5 28.5383ZM138.709 38.9133L141.134 38.9133L141.134 22.7003L138.709 22.7003L138.709 38.9133ZM13.17 10.3643C13.0043 10.7563 12.9229 11.1788 12.931 11.6043L12.931 40.2623C12.924 40.6877 13.0054 41.11 13.17 41.5023L28.77 25.9393L13.17 10.3643ZM29.68 25.0253L34.574 20.1423L16.226 9.7123C15.5963 9.28496 14.8005 9.1839 14.084 9.4403L29.68 25.0253ZM29.68 26.8523L14.073 42.4363C14.7906 42.7029 15.5929 42.6056 16.226 42.1753L34.573 31.7453L29.68 26.8523ZM41.5 24.0693L35.747 20.7953L30.6 25.9283L35.744 31.0723L41.5 27.8003C43.318 26.7873 43.318 25.1003 41.5 24.0693L41.5 24.0693Z" id="Groupe_158" fill="#FFFFFF" stroke="none" />
    </g>
    <g id="Disponível-em" fill="#FFFFFF" transform="translate(53.100037 3.782318)">
      <path d="M48.3027 4.8623L49.2461 2.81836L51.3994 2.81836L49.5195 4.8623L48.3027 4.8623ZM4.70996 2.98926L1.01172 2.98926L1.01172 13.0107L4.81934 13.0107Q5.94043 13.0107 6.61035 12.7988Q7.50586 12.5117 8.03223 11.999Q8.72949 11.3223 9.10547 10.2285Q9.41309 9.33301 9.41309 8.0957Q9.41309 6.6875 9.08496 5.72705Q8.75683 4.7666 8.12793 4.10352Q7.49902 3.44043 6.61719 3.18066Q5.96094 2.98926 4.70996 2.98926ZM11.1152 2.98926L11.1152 4.7666L13.0361 4.7666L13.0361 2.98926L11.1152 2.98926ZM67.9082 2.98926L67.9082 13.0107L69.8291 13.0107L69.8291 2.98926L67.9082 2.98926ZM3.03516 11.3223L3.03516 4.68457L3.94434 4.68457Q5.18164 4.68457 5.60547 4.78027Q6.17285 4.90332 6.54199 5.25195Q6.91113 5.60059 7.11621 6.22266Q7.32129 6.84473 7.32129 8.00684Q7.32129 9.16895 7.11621 9.84229Q6.91113 10.5156 6.58643 10.8096Q6.26172 11.1035 5.76953 11.2266Q5.39355 11.3223 4.5459 11.3223L3.03516 11.3223ZM14.3281 10.9395L16.2559 10.6455Q16.3789 11.2061 16.7549 11.4966Q17.1309 11.7871 17.8076 11.7871Q18.5527 11.7871 18.9287 11.5137Q19.1816 11.3223 19.1816 11.001Q19.1816 10.7822 19.0449 10.6387Q18.9014 10.502 18.4023 10.3857Q16.0781 9.87305 15.4561 9.44922Q14.5947 8.86133 14.5947 7.81543Q14.5947 6.87207 15.3398 6.22949Q16.085 5.58691 17.6504 5.58691Q19.1406 5.58691 19.8652 6.07227Q20.5898 6.55762 20.8633 7.50781L19.0518 7.84277Q18.9355 7.41895 18.6108 7.19336Q18.2861 6.96777 17.6846 6.96777Q16.9258 6.96777 16.5977 7.17969Q16.3789 7.33008 16.3789 7.56934Q16.3789 7.77441 16.5703 7.91797Q16.8301 8.10938 18.3647 8.45801Q19.8994 8.80664 20.5078 9.3125Q21.1094 9.8252 21.1094 10.7412Q21.1094 11.7393 20.2754 12.457Q19.4414 13.1748 17.8076 13.1748Q16.3242 13.1748 15.4595 12.5732Q14.5947 11.9717 14.3281 10.9395ZM24.5273 5.75098L22.7363 5.75098L22.7363 15.7725L24.6572 15.7725L24.6572 12.1152Q25.1973 12.6963 25.686 12.9355Q26.1748 13.1748 26.7764 13.1748Q28.041 13.1748 28.9297 12.1665Q29.8184 11.1582 29.8184 9.33984Q29.8184 7.56934 28.9365 6.57813Q28.0547 5.58691 26.79 5.58691Q26.0654 5.58692 25.4707 5.92871Q24.876 6.27051 24.5273 6.81738L24.5273 5.75098ZM30.8984 9.27832Q30.8984 8.32129 31.3701 7.42578Q31.8418 6.53027 32.7065 6.05859Q33.5713 5.58691 34.6377 5.58691Q36.2852 5.58691 37.3379 6.65674Q38.3906 7.72656 38.3906 9.36035Q38.3906 11.0078 37.3276 12.0913Q36.2646 13.1748 34.6514 13.1748Q33.6533 13.1748 32.7476 12.7236Q31.8418 12.2725 31.3701 11.4009Q30.8984 10.5293 30.8984 9.27832ZM44.5771 13.0107L46.498 13.0107L46.498 8.49902Q46.498 7.6582 46.3921 7.20703Q46.2861 6.75586 46.0161 6.40039Q45.7461 6.04492 45.2197 5.81592Q44.6934 5.58691 44.0576 5.58691Q42.6152 5.58691 41.665 6.81738L41.665 5.75098L39.8809 5.75098L39.8809 13.0107L41.8018 13.0107L41.8018 9.72266Q41.8018 8.50586 41.9487 8.05469Q42.0957 7.60352 42.4922 7.33008Q42.8887 7.05664 43.3877 7.05664Q43.7773 7.05664 44.0542 7.24805Q44.3311 7.43945 44.4541 7.78467Q44.5771 8.12988 44.5771 9.30566L44.5771 13.0107ZM64.3262 10.7002L66.2402 11.0215Q65.8711 12.0742 65.0747 12.6245Q64.2783 13.1748 63.082 13.1748Q61.1885 13.1748 60.2793 11.9375Q59.5615 10.9463 59.5615 9.43555Q59.5615 7.63086 60.5049 6.60889Q61.4482 5.58691 62.8906 5.58691Q64.5107 5.58691 65.4473 6.65674Q66.3838 7.72656 66.3428 9.93457L61.5303 9.93457Q61.5508 10.7891 61.9951 11.2642Q62.4395 11.7393 63.1025 11.7393Q63.5537 11.7393 63.8613 11.4932Q64.1689 11.2471 64.3262 10.7002ZM79.8916 10.7002L81.8057 11.0215Q81.4365 12.0742 80.6401 12.6245Q79.8438 13.1748 78.6475 13.1748Q76.7539 13.1748 75.8447 11.9375Q75.127 10.9463 75.127 9.43555Q75.127 7.63086 76.0703 6.60889Q77.0137 5.58691 78.4561 5.58691Q80.0762 5.58691 81.0127 6.65674Q81.9492 7.72656 81.9082 9.93457L77.0957 9.93457Q77.1162 10.7891 77.5605 11.2642Q78.0049 11.7393 78.668 11.7393Q79.1191 11.7393 79.4268 11.4932Q79.7344 11.2471 79.8916 10.7002ZM85.1006 5.75098L83.3301 5.75098L83.3301 13.0107L85.251 13.0107L85.251 9.4834Q85.251 8.4375 85.4048 7.98633Q85.5586 7.53516 85.9141 7.2959Q86.2695 7.05664 86.7139 7.05664Q87.083 7.05664 87.2983 7.20703Q87.5137 7.35742 87.6162 7.66504Q87.7188 7.97266 87.7188 9.03223L87.7188 13.0107L89.6396 13.0107L89.6396 9.52441Q89.6396 8.49902 89.7969 8.02393Q89.9541 7.54883 90.3096 7.30273Q90.665 7.05664 91.0684 7.05664Q91.6221 7.05664 91.8887 7.4668Q92.0869 7.78125 92.0869 8.86133L92.0869 13.0107L94.0078 13.0107L94.0078 8.36914Q94.0078 7.33008 93.8096 6.86523Q93.5361 6.23633 92.9824 5.91162Q92.4287 5.58691 91.6289 5.58691Q91 5.58691 90.4463 5.87402Q89.8926 6.16113 89.4141 6.74219Q89.0859 6.16113 88.5732 5.87402Q88.0605 5.58691 87.3633 5.58691Q86.0508 5.58691 85.1006 6.74219L85.1006 5.75098ZM11.1152 5.75098L11.1152 13.0107L13.0361 13.0107L13.0361 5.75098L11.1152 5.75098ZM48.4463 5.75098L50.3672 5.75098L50.3672 13.0107L48.4463 13.0107L48.4463 5.75098ZM53.4229 5.75098L51.4063 5.75098L54.332 13.0107L56.0615 13.0107L58.9463 5.75098L56.9707 5.75098L55.5898 9.45605Q55.4805 9.76367 55.3848 10.0713Q55.3438 10.2217 55.1865 10.6934L54.79 9.45605L53.4229 5.75098ZM64.4355 8.75879Q64.415 7.9248 64.0049 7.49072Q63.5947 7.05664 63.0068 7.05664Q62.3779 7.05664 61.9678 7.51465Q61.5576 7.97266 61.5645 8.75879L64.4355 8.75879ZM80.001 8.75879Q79.9805 7.9248 79.5703 7.49072Q79.1602 7.05664 78.5723 7.05664Q77.9434 7.05664 77.5332 7.51465Q77.123 7.97266 77.1299 8.75879L80.001 8.75879ZM25.1221 11.0659Q24.6367 10.4814 24.6367 9.25781Q24.6367 8.19141 25.1016 7.64795Q25.5664 7.10449 26.2705 7.10449Q26.9473 7.10449 27.4053 7.6582Q27.8633 8.21191 27.8633 9.35352Q27.8633 10.5771 27.4189 11.1138Q26.9746 11.6504 26.3047 11.6504Q25.6074 11.6504 25.1221 11.0659ZM32.8672 9.38086Q32.8672 10.4609 33.3799 11.0352Q33.8926 11.6094 34.6445 11.6094Q35.3965 11.6094 35.9058 11.0352Q36.415 10.4609 36.415 9.36719Q36.415 8.30078 35.9058 7.72656Q35.3965 7.15234 34.6445 7.15234Q33.8926 7.15234 33.3799 7.72656Q32.8672 8.30078 32.8672 9.38086Z" />
    </g>
  </g>
</svg>