<?xml version="1.0" encoding="utf-8"?>
<svg width="442px" height="442px" viewBox="0 0 442 442" version="1.1" xmlns:xlink="http://www.w3.org/1999/xlink" xmlns="http://www.w3.org/2000/svg">
  <g id="ic_launcher">
    <g id="svg">
      <path d="M0 70L0 35C0 25.335 3.41709 17.0854 10.2513 10.2513C17.0854 3.41709 25.335 0 35 0L407 0C416.665 0 424.915 3.41709 431.749 10.2513C438.583 17.0854 442 25.335 442 35L442 407C442 416.665 438.583 424.915 431.749 431.749C424.915 438.583 416.665 442 407 442L35 442C25.335 442 17.0854 438.583 10.2513 431.749C3.41709 424.915 0 416.665 0 407L0 70Z" id="Retângulo" fill="#67BF00" fill-rule="evenodd" stroke="none" />
    </g>
    <g id="Agrupar" transform="translate(102.3548 76.08127)">
      <path d="M0 154.464L32.9755 120.621C32.9755 120.621 74.0431 162.73 79.1846 200.673C84.3262 238.617 82.4388 289.837 82.4388 289.837L35.5788 289.837C35.5788 289.837 40.0818 232.411 30.5891 203.06C21.0965 173.709 0 154.464 0 154.464Z" id="Vetor" fill="#FFFFFF" fill-rule="evenodd" stroke="none" />
      <path d="M91.5505 162.274L204.361 49.8972L237.554 83.5235L144.051 176.593C144.051 176.593 150.439 195.456 151.644 220.198C152.849 244.94 152.295 289.404 152.295 289.404L105.869 289.837C105.869 289.837 107.199 221.948 102.181 197.636C97.1629 173.324 91.5505 162.274 91.5505 162.274Z" id="Vetor-2" fill="#FFFFFF" fill-rule="evenodd" stroke="none" />
      <path d="M50.3311 101.964L153.597 0L186.355 33.1925L79.1846 139.712C79.1846 139.712 69.9369 122.016 62.7951 114.242C55.6533 106.468 50.3311 101.964 50.3311 101.964Z" id="Vetor-3" fill="#FFFFFF" fill-rule="evenodd" stroke="none" />
    </g>
  </g>
</svg>